<svg xmlns="http://www.w3.org/2000/svg" width="1024" height="500" viewBox="0 0 1024 500" role="img" aria-labelledby="title desc">
  <title id="title">BeamNG Telemetry</title>
  <desc id="desc">DriveLab Telem promotional banner with live dashboards, race data, achievements, Drift Lab, and no PC helper required.</desc>

  <defs>
    <linearGradient id="bg" x1="0" y1="0" x2="1" y2="1">
      <stop offset="0" stop-color="#06101f"/>
      <stop offset="0.55" stop-color="#020b18"/>
      <stop offset="1" stop-color="#050b14"/>
    </linearGradient>
    <linearGradient id="cyan" x1="0" y1="0" x2="1" y2="1">
      <stop offset="0" stop-color="#00d9ff"/>
      <stop offset="1" stop-color="#00b9e8"/>
    </linearGradient>
    <linearGradient id="green" x1="0" y1="0" x2="1" y2="0">
      <stop offset="0" stop-color="#48ef99"/>
      <stop offset="1" stop-color="#34d886"/>
    </linearGradient>
    <filter id="softGlow" x="-30%" y="-30%" width="160%" height="160%">
      <feGaussianBlur stdDeviation="5" result="blur"/>
      <feMerge>
        <feMergeNode in="blur"/>
        <feMergeNode in="SourceGraphic"/>
      </feMerge>
    </filter>
  </defs>

  <rect width="1024" height="500" fill="url(#bg)"/>

  <!-- Gauge bars -->
  <g fill="#0c3447" opacity="0.95">
    <rect x="48" y="300" width="28" height="122" rx="14"/>
    <rect x="90" y="260" width="28" height="162" rx="14"/>
    <rect x="132" y="220" width="28" height="202" rx="14"/>
    <rect x="174" y="152" width="28" height="270" rx="14"/>
    <rect x="216" y="114" width="28" height="308" rx="14"/>
    <rect x="258" y="145" width="28" height="277" rx="14"/>
    <rect x="300" y="190" width="28" height="232" rx="14"/>
  </g>

  <!-- Gauge arc -->
  <path d="M42 244 A164 164 0 0 1 366 244" fill="none" stroke="url(#cyan)" stroke-width="20" stroke-linecap="butt" filter="url(#softGlow)"/>

  <!-- Needle -->
  <line x1="216" y1="270" x2="337" y2="174" stroke="#f5f7fb" stroke-width="17" stroke-linecap="round"/>
  <circle cx="216" cy="270" r="25" fill="url(#cyan)" stroke="#00a8cd" stroke-width="2" filter="url(#softGlow)"/>

  <!-- Marketing copy -->
  <g font-family="Segoe UI, Arial, Helvetica, sans-serif" font-weight="800">
    <text x="405" y="175" fill="#f7f7f8" font-size="59" letter-spacing="-1.6">BeamNG Telemetry</text>
    <text x="408" y="238" fill="#00cef4" font-size="27" letter-spacing="0.7">LIVE DASHBOARDS • RACE DATA</text>
    <text x="408" y="300" fill="#ffca32" font-size="25" letter-spacing="0.3">1,001 ACHIEVEMENTS • DRIFT LAB</text>
    <text x="408" y="365" fill="url(#green)" font-size="28" letter-spacing="0.5">NO PC HELPER REQUIRED</text>
  </g>
</svg>
